<svg viewBox="0 0 2880 1144" xmlns="http://www.w3.org/2000/svg">
  <path d="M1696.8 305C1704.3 305.2 1711 299.5 1713.9 292.6 1716.8 285.7 1716.3 277.8 1714.9 270.5 1713.5 263.2 1710.4 255.3 1703.8 251.5 1697.5 247.9 1692.5 249.4 1688.7 253.4 1681.3 261.2 1678.5 278.5 1679.3 286 1680.3 295.3 1687.4 304.7 1696.8 305Z"/>
  <path d="M2605.5 656.3L2759 269.5 2728.7 237.7 2430.4 262.8 2426.8 131 2047.3 136.5 2029.6 161.6 2010.2 136.4 492.1 134.8 499.3 42.9 39.3 51.4 111.8 169.9 143.2 175.3 126 193.2 258.6 409.8 86.9 841.4 377.3 828.6 352.6 1006.2 789.5 989.5 802.8 960.6 826.7 989.8 2372.8 998.9 2378.3 1095.8 2824.3 1064.3 2605.5 656.3ZM2219.3 226.9C2226.1 220.6 2234.7 216.9 2245.1 217.8 2261.5 219.1 2272.9 234.9 2278.8 250.3 2283.8 263.5 2286.5 278 2283.9 291.8 2281.3 305.6 2272.6 318.9 2259.7 324.6 2241.1 332.8 2217.7 323 2207.4 305.5 2195.5 285.5 2199.8 245.1 2219.3 226.9ZM1956.5 227.6L1982.8 227.2 1984.8 335.5 1955.4 336.2 1956.5 227.6ZM1657.1 261C1662.2 239.3 1675.4 219.4 1696.6 220 1709.9 220.4 1720.5 231.1 1727.5 242.4 1736.9 257.6 1742.4 276 1739 293.6 1735.6 311.2 1722 327.3 1704.4 330.3 1685.2 333.5 1665.7 320.3 1658.3 302.3 1653.9 291.8 1653.6 276 1657.1 261ZM1438.7 223L1435.6 325.5 1412.5 327.3 1410.5 219 1438.7 223ZM1121.8 235.1C1128.4 225.7 1138.5 219.3 1149.9 217.4 1162.4 215.2 1176.3 219.6 1184.1 229.7 1189.6 236.9 1191.7 246.1 1192.8 255 1195.2 274.6 1192.9 296 1180.7 311.5 1168.5 327 1144.1 333.9 1128.1 322.3 1118.9 315.6 1113.9 304.4 1111.7 293.3 1107.8 274.2 1110.4 250.9 1121.8 235.1ZM864.3 216.2L896.4 210.7 888.8 335.3 861.7 325 864.3 216.2ZM593.1 212.6C599 210 605.3 208.8 611.7 209 617.3 209 623.2 210.3 627.7 213.6 630.7 216 633.3 219 635.3 222.4 651.5 248.5 648.4 285.1 628.1 308.1 623.3 313.5 617.4 318.4 610.3 319.8 596.9 322.5 584.2 312.3 577.1 300.7 560.5 273.5 563 226 593.1 212.6ZM369.4 465.6L368.4 792.2 134.4 813.1 300.2 425.4 192.8 235.1 380.2 239.3 369.4 465.6ZM830.3 955.5L806.6 929.4 774.6 956.6 420.6 953.9 432 382.4 2391.8 393.2 2404.9 679.8 2439.2 955.3 830.3 955.5ZM2432 1008.9L2488 974.6 2451 676.2 2444.6 452.5 2623.9 450.2 2647.8 479.4 2565.6 662.3 2753.7 1023 2428.7 1058.8 2432 1008.9Z"/>
  <path d="M596.9 294.1C602.4 297.6 610 296.5 615.1 292.5 620.2 288.5 623.2 282.2 624.5 275.8 626.6 265.1 624.8 253.9 619.2 244.5 616.4 239.8 612.4 235.5 607.3 233.6 599.8 230.9 594.9 233.3 591.9 238.2 585.5 248.4 586.9 269.5 588.4 277.8 589.5 284.1 591.6 290.7 596.9 294.1Z"/>
  <path d="M1141.9 307C1146.3 310.5 1152.9 308.2 1157.3 304.7 1167.4 296.6 1172.2 283.2 1172.1 270.3 1172 263.2 1170.5 255.8 1165.5 250.7 1158.5 243.7 1147.3 243.3 1139.8 249.8 1127.5 261 1132.4 289.3 1138.4 302 1139.2 303.9 1140.4 305.6 1141.9 307Z"/>
  <path d="M2239.7 303.4C2268.1 314.8 2267.5 268.9 2258.5 254.4 2256.4 251 2253.6 247.8 2249.9 246.6 2233.8 241.4 2221.7 265.6 2225.1 282.2 2226.7 290.3 2231.6 300.1 2239.7 303.4Z"/>
  <path d="M700.6 468.2C700.2 466.1 663.8 452.4 660.3 451.5 621.6 442 579 450.6 555.2 484.7 529 522.2 542.3 574 582 597.1 600 607.6 629.2 608.9 642.9 627.3 652.5 640.1 648 654.8 635 662.9 618.9 673 602.9 667.7 586.6 661.4 572.3 655.9 558 650.5 543.7 645L542.2 696.9C542.2 698.7 568.6 708.2 571.6 709.4 604.6 722.9 642.3 722 675.5 709.8 704.8 699 707.8 664 708.7 636.8 708.9 629.9 706.9 623.2 704.9 616.6 695.5 584.7 683 582.6 655.2 568.8 642.6 562.5 629.2 557.2 617.9 548.6 609.5 542.1 602 531.9 601.9 520.9 601.6 500.4 626.3 491.8 640.1 492.6 648.5 493.1 678.3 506 697.8 517.7 697.8 517.5 700.5 470.3 700.6 468.2"/>
  <path d="M745.2 447.3C745.2 447.3 804.2 457.4 807.8 458 809.4 458.3 802.1 536.5 801.6 542.5 799.7 567.6 795.1 594.4 801.1 619.4 806.2 640.6 836 681.4 856.1 648.5 874.4 618.7 873.9 569.9 875.6 536.3 875.8 531.2 877.9 459 879.4 458.9L934.9 454.7C935.5 483.3 937.3 530 937.6 547.8 939.3 631.6 926.3 717 823.6 716.9 772.8 716.9 741.7 659.7 742.4 615 742.4 614.9 745.2 447.3 745.2 447.3"/>
  <path d="M979 723L978 451.3 1030.4 447.3 1099.3 578.5 1108.7 456.9 1167.7 458.6 1165.2 724.4 1094.9 724.6 1034.1 577.3 1035.9 722.9 979 723Z"/>
  <path d="M1388.2 670.1C1389.4 684 1390.5 697.9 1391.7 711.7 1391.9 712.9 1391.8 714.1 1391.2 715.1 1390.5 715.9 1389.5 716.4 1388.5 716.6 1361.2 724.7 1332.6 730.1 1304.3 726.4 1258.8 720.5 1218.8 685.7 1211.6 639.5 1206.2 604.6 1201 567.7 1214.1 534.9 1229.1 497.2 1254.1 479.5 1292.2 465.5 1322.8 454.2 1364.7 461.3 1394.8 469.3 1393.9 486 1393 502.8 1392.2 519.5 1362 505.9 1286 497.4 1269.3 536.8 1261.4 555.6 1262.4 583.2 1263.3 603.2 1265.8 659.8 1339.6 689.9 1388.2 670.1"/>
  <path d="M1758.3 602.9L1793.1 612.7 1778 536.3 1758.3 602.9ZM1751.1 467L1807 469 1882.8 732.9 1827.3 737.1 1805.8 658.1 1753.2 659 1728.2 738.4 1665.6 730.8 1751.1 467Z"/>
  <path d="M1535.5 677.7C1548.2 679.9 1561 678.1 1571.6 668.9 1587.1 655.4 1592.2 632.1 1591.8 612.4 1591.2 584.2 1577 553.1 1555 534.9 1543.3 525.2 1526.5 520.1 1512.5 526.1 1499.9 531.6 1492.4 544.5 1486.5 556.9 1478.5 573.7 1471.8 591.6 1471.6 610.2 1471.4 635.2 1484.8 654.4 1506 666.5 1514.9 671.6 1525.1 676 1535.5 677.7M1457.1 497.8C1468 487.1 1481 478.7 1495.3 473.2 1526.7 461.3 1561.7 463.4 1591.5 478.9 1665.1 517.9 1671.7 620 1627.7 683.7 1610.8 708.2 1586.4 727.2 1556.9 733.6 1470.4 752.4 1408.2 665.6 1416.3 586.6 1419.6 554.2 1433.6 520.7 1457.1 497.8"/>
  <path d="M2063.2 479.7C2063.2 479.7 2064.6 530.8 2064.6 530.9 2049 523.4 2019.8 516.5 2011.3 516.2 1994.5 515.6 1978.1 516.7 1968.2 533.4 1963.8 540.8 1966.1 550.6 1971.4 557.3 1985.2 574.8 2010.8 579.8 2029.9 589 2074.3 610.6 2094.3 662.4 2067.4 706.2 2049.4 735.5 2015.5 733.3 1984.8 731.6 1977.7 731.2 1915.6 724.3 1915.5 718.1 1915.5 718.1 1915.4 672.7 1915.4 672.2 1929.7 677.3 1951.7 681.4 1959.6 682.8 1977.9 686 1984.2 687.5 2002.2 681.9 2006.9 680.4 2012.4 676.4 2016.2 673.3 2026.2 665.2 2023.9 654.1 2016.9 644.9 2012.8 639.4 2006.8 635.7 2000.7 632.5 1985.7 624.8 1969.4 620.2 1953.8 613.6 1918 598.4 1898.9 569.9 1905.2 530.3 1910.3 498.2 1924 471.7 1957.7 463.3 1975.1 459 1994.7 459.9 2012.1 464.2 2016.9 465.6 2063.2 477.4 2063.2 479.7"/>
  <path d="M2118.1 479.7L2120.2 534.5 2181.6 529.9 2193.8 743.6 2251.9 735.2 2246.3 523.6 2302.2 521.7 2303.4 465.3 2118.1 479.7Z"/>
  <path d="M573.5 871.6C584.4 866.9 591 854.9 591 843 591 814.3 570.6 811 548.3 806.4L548.3 874.6C548.3 875.4 571.8 872.3 573.5 871.6M519 897.5C519 897.5 522.6 785.5 522.7 782.6 522.7 782.3 559.5 781.7 562.4 781.8 587.6 782.8 614.2 800.8 617 827.2 621.2 866.9 605.2 884.9 568.4 893.7 564.8 894.6 518.8 904.1 519 897.5"/>
  <path d="M650.7 781L645.6 877.5 653.8 897.5 722.7 900.5 726 876.5 675.3 876.2 675.3 849.3 719.9 851.1 724.1 824.9 675.4 823.4 674.1 805.9 724.6 804.1 729 781 650.7 781Z"/>
  <path d="M751.1 783.8L778.8 781.7 804.3 858.3 825.6 785.4 851.4 784.5 811.6 900.2 786.6 898 751.1 783.8Z"/>
  <path d="M867.9 784.2L867.1 882.4 866.4 900 949.3 903 948.7 881.3 893.5 875.2 895.9 852.3 944.3 850.7 941.7 830.2 899.2 828.3 897.3 803.6 948.1 805.9 949.9 788.2 867.9 784.2Z"/>
  <path d="M972.3 784.5L998.4 787.7 997.8 875.6 1048.8 880 1048.4 901.7 986.2 899.2 970.8 886.9 972.3 784.5Z"/>
  <path d="M1095.4 823.1C1091.1 827.8 1088.2 833.6 1086.9 839.9 1082.4 863.7 1105.2 890.6 1129.3 882.8 1144.5 877.9 1157.3 864.3 1158.7 848.4 1160.7 825.1 1141.5 815.2 1121.8 812.8 1111.6 811.6 1102 815.9 1095.4 823.1M1079.7 806.7C1091.3 794.2 1102.6 783.2 1121 786.6 1149.3 791.9 1176.8 799.7 1183.2 832 1186.2 846.7 1186.6 869.4 1177 881.8 1173.2 886.7 1167.9 890 1162.7 893.3 1141.5 906.7 1112.9 914.1 1090.1 898.4 1088.2 897 1086.5 895.2 1085.1 893.3 1076.1 882.3 1067.1 870.6 1063.8 856.8 1058.9 836.1 1067.2 820.1 1079.7 806.7"/>
  <path d="M1237.8 810.8L1238.6 834.5C1253.2 837.2 1270 836 1271.5 825.8 1273 815.6 1258.6 810.1 1237.8 810.8M1269.1 795.5C1281.2 800.1 1291.7 811.8 1292.4 816.5 1297.1 847.1 1263.9 859.4 1237.2 858.4L1234.4 903 1208.2 898.8C1208.2 898.8 1212 789 1212.3 789 1233.8 789.2 1245.3 786.5 1269.1 795.5"/>
  <path d="M1314.9 791.5L1313.5 909.4 1331 909.1 1393.8 906.4 1391.8 880.7 1341.2 881.4 1340.4 857.7 1390.2 860.1 1390.4 835.3 1344.7 832.6 1342.5 817.3 1395.2 817.4 1398.2 789.3 1314.9 791.5Z"/>
  <path d="M1461.5 817.6L1463.5 844.3C1464.1 852.7 1495.8 841.5 1495.1 831.2 1494.3 819 1461.6 819 1461.5 817.6M1506 801.1C1520.1 807.3 1523.5 816.8 1523.2 833.1 1523.1 836 1519 859 1498.3 862.9L1528.4 908.7 1498.7 912 1473.8 869.5 1462.5 870.4 1464.7 913.6 1437.6 910.5C1437.6 910.5 1437.2 792.6 1437.2 792.5 1459 793.2 1480 793.8 1483.8 794.4 1489.9 795.1 1500.9 798.8 1506 801.1"/>
  <path d="M1638.6 795.9L1640.4 819.5C1618.8 815.4 1587.8 801.8 1584.7 820.6 1581.6 839.4 1634.1 841.1 1642.6 870.9 1648.2 890.5 1635.6 903.2 1620 904.8 1614.2 905.4 1575.8 905.1 1556.4 897.2 1556.4 897.2 1557.8 876.5 1557.8 875.4 1557.7 876.2 1580 884 1582.1 884.4 1593.3 886.3 1617 886.3 1616.2 875.6 1615.1 861.7 1580.4 850.7 1578.1 849.4 1572.1 846 1565.8 842.5 1561.9 836.8 1555.4 827.5 1556.9 814.1 1563.5 804.8 1580.5 780.9 1614.7 792.7 1638.6 795.9"/>
  <path d="M1879.4 796.2L1879.2 821C1880 816.8 1838.4 815.6 1833.3 817.5 1817.5 823.5 1802.6 846.1 1807.8 863.2 1811 873.6 1823.1 883.2 1832.5 886.2 1834.5 886.9 1856 888 1856.1 884.7L1856.8 866 1829.8 863.9 1829.3 843.3 1884.3 846.4C1884.3 846.4 1885.3 900 1885.3 900.1 1885.1 903.9 1855.5 908.3 1852.1 908.8 1834.1 911.6 1815.8 905.9 1802.5 893.4 1787.9 879.5 1775.8 851.3 1782.8 831.3 1788.9 814 1811.7 795.2 1829.1 790.8 1833.6 789.8 1879.5 791.7 1879.4 796.2"/>
  <path d="M1936.4 798.1L1966.7 803C1966.6 814.8 1966.5 826.7 1966.3 838.5 1966.2 850.7 1964.7 863.3 1967.5 875.4 1970.5 888.4 1985.1 895.6 1996.2 886.7 2007.3 877.8 2008.2 861.1 2008.9 848.1 2009.1 844.1 2008.1 798.9 2007.7 798.9L2034.6 798.9 2033.7 845.7C2033.3 864.4 2037 888.4 2022.1 902.9 2008.3 916.4 1985.6 919.1 1967.6 913.8 1951.6 909.1 1940.8 889.3 1940.2 873.1 1939.8 863.1 1939.2 853.1 1938.7 843.1 1938 828.2 1937.2 813.1 1936.4 798.1"/>
  <path d="M2086 795.7L2085.3 908.6 2113.2 908.5 2115.1 797.8 2086 795.7Z"/>
  <path d="M2166.3 790.9L2195.6 795.9 2192.8 881.9 2243.8 887.3 2243.3 908 2178.9 903.6 2164.5 891.3 2166.3 790.9Z"/>
  <path d="M2313.1 819C2313.1 819 2311.9 885.1 2311.9 885.2 2311.9 889 2337.7 884.3 2340.2 883.1 2356.4 875.1 2360.2 852.9 2353.3 837.6 2344.9 819 2330.3 819.8 2313.1 819M2355.2 797.8C2374.9 807.3 2386.4 829 2385.5 852.5 2384.2 886.1 2357.5 910.8 2324.6 913.5 2321.3 913.8 2285.1 912.5 2285.1 913.2 2285.5 873.5 2285.9 833.9 2286.4 794.3 2286.5 790.9 2330.2 792.8 2334.3 792.9 2341.5 793 2348.7 794.6 2355.2 797.8"/>
</svg>